{
	"asset":{
		"generator":"Khronos glTF Blender I/O v4.4.55",
		"version":"2.0"
	},
	"scene":0,
	"scenes":[
		{
			"name":"Scene",
			"nodes":[
				0,
				1
			]
		}
	],
	"nodes":[
		{
			"mesh":0,
			"name":"Rim"
		},
		{
			"mesh":1,
			"name":"Panel",
			"rotation":[
				0.7071068286895752,
				0,
				0,
				0.7071068286895752
			],
			"scale":[
				0.2663913667201996,
				0.2663913667201996,
				0.2663913667201996
			]
		}
	],
	"materials":[
		{
			"doubleSided":true,
			"name":"RimMaterial",
			"pbrMetallicRoughness":{
				"baseColorFactor":[
					0.008146150968968868,
					0.008146150968968868,
					0.008146150968968868,
					1
				],
				"metallicFactor":0.027190327644348145,
				"roughnessFactor":0.10120846331119537
			}
		},
		{
			"doubleSided":true,
			"name":"PanelMaterial",
			"pbrMetallicRoughness":{
				"baseColorTexture":{
					"index":0
				}
			}
		}
	],
	"meshes":[
		{
			"name":"RimMesh",
			"primitives":[
				{
					"attributes":{
						"POSITION":0,
						"NORMAL":1,
						"TEXCOORD_0":2
					},
					"indices":3,
					"material":0
				}
			]
		},
		{
			"name":"PanelMesh",
			"primitives":[
				{
					"attributes":{
						"POSITION":4,
						"NORMAL":5,
						"TEXCOORD_0":6
					},
					"indices":7,
					"material":1
				}
			]
		}
	],
	"textures":[
		{
			"sampler":0,
			"source":0
		}
	],
	"images":[
		{
			"bufferView":8,
			"mimeType":"image/png",
			"name":"Holder"
		}
	],
	"accessors":[
		{
			"bufferView":0,
			"componentType":5126,
			"count":637,
			"max":[
				0.27568066120147705,
				0.2756807804107666,
				0.013127617537975311
			],
			"min":[
				-0.2756807208061218,
				-0.27568066120147705,
				-0.013127725571393967
			],
			"type":"VEC3"
		},
		{
			"bufferView":1,
			"componentType":5126,
			"count":637,
			"type":"VEC3"
		},
		{
			"bufferView":2,
			"componentType":5126,
			"count":637,
			"type":"VEC2"
		},
		{
			"bufferView":3,
			"componentType":5123,
			"count":3456,
			"type":"SCALAR"
		},
		{
			"bufferView":4,
			"componentType":5126,
			"count":32,
			"max":[
				1,
				0,
				1
			],
			"min":[
				-1,
				0,
				-1
			],
			"type":"VEC3"
		},
		{
			"bufferView":5,
			"componentType":5126,
			"count":32,
			"type":"VEC3"
		},
		{
			"bufferView":6,
			"componentType":5126,
			"count":32,
			"type":"VEC2"
		},
		{
			"bufferView":7,
			"componentType":5123,
			"count":90,
			"type":"SCALAR"
		}
	],
	"bufferViews":[
		{
			"buffer":0,
			"byteLength":7644,
			"byteOffset":0,
			"target":34962
		},
		{
			"buffer":0,
			"byteLength":7644,
			"byteOffset":7644,
			"target":34962
		},
		{
			"buffer":0,
			"byteLength":5096,
			"byteOffset":15288,
			"target":34962
		},
		{
			"buffer":0,
			"byteLength":6912,
			"byteOffset":20384,
			"target":34963
		},
		{
			"buffer":0,
			"byteLength":384,
			"byteOffset":27296,
			"target":34962
		},
		{
			"buffer":0,
			"byteLength":384,
			"byteOffset":27680,
			"target":34962
		},
		{
			"buffer":0,
			"byteLength":256,
			"byteOffset":28064,
			"target":34962
		},
		{
			"buffer":0,
			"byteLength":180,
			"byteOffset":28320,
			"target":34963
		},
		{
			"buffer":0,
			"byteLength":196136,
			"byteOffset":28500
		}
	],
	"samplers":[
		{
			"magFilter":9729,
			"minFilter":9987,
			"wrapS":33071,
			"wrapT":33071
		}
	],
	"buffers":[
		{
			"byteLength":224636,
			"uri":"data:application/octet-stream;base64,"
		}
	]
}
